HIERARCHY
ROOT Hips
{
     OFFSET 12.06070 97.17400 -7.25333
     CHANNELS 6 Xposition Yposition Zposition Zrotation Xrotation Yrotation
     JOINT Spine
     {
          OFFSET 0.00000 11.89050 0.00000
          CHANNELS 3 Zrotation Xrotation Yrotation
          JOINT Spine1
          {
               OFFSET -0.00000 25.65740 0.12766
               CHANNELS 3 Zrotation Xrotation Yrotation
               JOINT HEad
               {
                    OFFSET -0.00000 8.73416 0.01134
                    CHANNELS 3 Zrotation Xrotation Yrotation
                    End Site
                    {
                         OFFSET -0.29000 12.77420 2.51395
                    }
               }
               JOINT LeftShoulder1
               {
                    OFFSET 8.99000 -0.36225 -0.22000
                    CHANNELS 3 Zrotation Xrotation Yrotation
                    JOINT LeftArm
                    {
                         OFFSET 10.28270 -0.00338 0.32212
                         CHANNELS 3 Zrotation Xrotation Yrotation
                         JOINT LeftForeArm
                         {
                              OFFSET 32.76690 0.09914 -1.42434
                              CHANNELS 3 Zrotation Xrotation Yrotation
                              JOINT LeftHand
                              {
                                   OFFSET 27.56430 0.08536 1.02216
                                   CHANNELS 3 Zrotation Xrotation Yrotation
                                   End Site
                                   {
                                        OFFSET 16.74430 -0.60000 1.50291
                                   }
                              }
                         }
                    }
               }
               JOINT RightShoulder
               {
                    OFFSET -8.99000 -0.36225 -0.22000
                    CHANNELS 3 Zrotation Xrotation Yrotation
                    JOINT RightArm
                    {
                         OFFSET -10.28270 -0.00338 0.32212
                         CHANNELS 3 Zrotation Xrotation Yrotation
                         JOINT RightForeArm
                         {
                              OFFSET -32.89710 0.09914 -1.42434
                              CHANNELS 3 Zrotation Xrotation Yrotation
                              JOINT RightHand
                              {
                                   OFFSET -27.49210 0.08536 1.02216
                                   CHANNELS 3 Zrotation Xrotation Yrotation
                                   End Site
                                   {
                                        OFFSET -16.63120 -0.60000 1.50291
                                   }
                              }
                         }
                    }
               }
          }
     }
     JOINT LeftUpLeg
     {
          OFFSET 8.94580 -8.66707 0.10165
          CHANNELS 3 Zrotation Xrotation Yrotation
          JOINT LeftLeg
          {
               OFFSET 0.00000 -44.42270 1.37270
               CHANNELS 3 Zrotation Xrotation Yrotation
               JOINT LeftFoot
               {
                    OFFSET -0.25355 -42.09240 -1.46059
                    CHANNELS 3 Zrotation Xrotation Yrotation
                    JOINT LeftToes
                    {
                         OFFSET -0.04000 -4.41509 8.49910
                         CHANNELS 3 Zrotation Xrotation Yrotation
                         End Site
                         {
                              OFFSET 0.08000 -0.04745 9.77979
                         }
                    }
               }
          }
     }
     JOINT RightUpLeg
     {
          OFFSET -8.94580 -8.66707 0.10165
          CHANNELS 3 Zrotation Xrotation Yrotation
          JOINT RightLeg
          {
               OFFSET 0.00000 -44.42270 1.37270
               CHANNELS 3 Zrotation Xrotation Yrotation
               JOINT RightFoot
               {
                    OFFSET 0.25355 -42.09240 -1.46059
                    CHANNELS 3 Zrotation Xrotation Yrotation
                    JOINT RightToes
                    {
                         OFFSET 0.04000 -4.41509 8.49910
                         CHANNELS 3 Zrotation Xrotation Yrotation
                         End Site
                         {
                              OFFSET -0.08000 -0.13745 9.77979
                         }
                    }
               }
          }
     }
}
MOTION
Frames: 6
Frame Time: 0.01667
2.17890 88.10640 -31.49750 8.13349 -5.20982 50.81290 7.76788 11.51170 -3.75912 -1.45530 23.29430 -4.58452 -9.67080 -2.96441 30.26740 -0.00000 -0.00000 0.00000 -99.58970 -62.85610 -62.90760 -50.42120 58.51940 -74.38860 15.29330 7.71029 -12.86310 16.07190 0.44555 -0.14601 77.69550 -5.48545 64.02140 21.99710 33.19460 96.76810 17.97090 11.97840 8.47696 27.25540 -10.58380 -28.19640 -27.30090 27.48220 81.53010 -25.83560 -7.40664 0.08693 8.75911 21.34210 -35.25660 -35.70540 -0.17026 -4.49292 56.71320 15.87260 -71.82730 -34.20150 -7.12294 -0.00139 3.52233 -38.50780 1.09299 
2.70451 87.68040 -32.38900 8.14240 -5.45429 53.31020 8.76958 11.34280 -3.57557 -1.28751 23.12570 -4.06233 -9.82039 -2.76420 29.39450 -0.00000 -0.00000 0.00000 -100.24200 -63.67970 -63.57750 -48.61620 59.15820 -75.86870 16.06910 7.58044 -12.94870 17.00620 0.45580 -0.16490 76.64940 -5.80782 64.30450 23.42340 33.23820 96.01830 18.28050 11.98380 8.29930 27.13020 -12.34650 -28.25180 -27.05260 29.59300 82.10260 -28.91680 -7.93216 -0.03923 6.90286 21.40400 -30.25360 -36.26880 0.43585 -4.12751 57.29400 15.95100 -72.28020 -34.24440 -7.57701 -0.14550 2.98432 -36.82860 -0.72025 
3.30591 87.05710 -33.42100 8.43588 -5.93866 55.86510 10.18930 11.22640 -3.46549 -1.05983 23.13120 -3.52148 -9.37034 -2.55720 29.10310 -0.00000 -0.00000 0.00000 -97.26170 -62.65390 -61.35790 -46.37990 57.91990 -78.13790 15.88240 7.61824 -12.88050 17.17580 0.39681 -0.47890 76.10470 -5.00652 64.56110 22.13440 32.55960 96.92740 17.80670 11.88920 8.03987 26.92790 -14.21810 -28.53080 -27.42980 32.25880 85.03740 -31.32050 -6.42497 0.37049 7.09317 22.90870 -30.58340 -36.79130 0.97601 -3.33243 57.79850 16.52970 -72.60910 -33.94440 -7.64633 -0.16758 2.14674 -34.51940 -4.38709 
3.80637 86.84580 -34.34720 8.32901 -5.85233 58.20200 10.43570 10.99110 -3.18004 -0.86372 22.84160 -3.14557 -10.08650 -2.80025 28.23540 -0.00000 -0.00000 0.00000 -98.00550 -63.32010 -62.12390 -46.43980 58.11720 -77.98470 16.35860 7.48382 -13.32370 16.27660 0.53427 0.31040 77.30640 -6.11759 64.68130 22.34930 33.41720 96.75770 17.71170 11.86780 7.97076 26.79950 -15.99550 -28.24780 -28.16820 33.53140 87.40690 -32.37810 -5.05334 0.77391 6.30369 25.86460 -28.31670 -37.40490 1.65744 -3.02284 57.73360 15.96200 -73.68890 -34.24210 -7.06584 0.01696 2.32993 -34.02710 -3.18805 
4.16090 87.04260 -35.15470 8.28153 -5.84139 60.31510 10.03680 10.74540 -2.68071 -0.91783 22.41940 -2.42523 -8.98126 -2.81112 27.63180 -0.00000 -0.00000 0.00000 -100.14300 -65.07530 -63.81700 -50.00870 58.82750 -74.51940 15.69060 7.53660 -13.71210 17.18370 0.58777 0.49528 76.72190 -6.36449 64.66370 22.45150 33.76320 96.83670 17.13790 11.78990 7.86911 27.81290 -16.54530 -25.99590 -28.71080 32.61250 87.50920 -30.26440 -3.21965 1.20676 6.38130 22.09640 -28.79080 -37.50940 1.97197 -1.74670 57.47280 15.51780 -72.87270 -32.29330 -7.48699 -0.12011 1.68137 -29.01850 -6.26626 
4.79670 86.90410 -36.15720 8.63571 -5.93884 63.07230 10.58570 10.63940 -2.47411 -0.68146 22.44020 -2.03834 -9.67459 -2.85371 25.63810 -0.00000 -0.00000 0.00000 -98.77560 -64.27000 -63.22540 -49.80990 57.39270 -74.84750 15.17600 7.58507 -13.97450 16.82350 0.51139 0.13760 76.43820 -5.24082 65.00160 22.04910 32.28900 96.93000 17.85070 11.93650 8.30241 28.01850 -17.82220 -25.30190 -30.09540 32.81930 88.90580 -28.77060 -1.34097 1.61388 7.35470 17.51000 -32.06930 -37.97510 3.17156 -1.25828 56.98890 15.59280 -73.03620 -32.05310 -6.91612 0.04886 1.56643 -26.98700 -6.92707 
